<mxfile host="app.diagrams.net" modified="2023-10-31T13:47:41.285Z" agent="Mozilla/5.0 (Macintosh; Intel Mac OS X 10_15_7) AppleWebKit/537.36 (KHTML, like Gecko) Chrome/118.0.0.0 Safari/537.36" etag="icxt0Onqs7EAb1XgUv5K" version="22.0.8" type="github">
  <diagram name="Seite-1" id="-TBw2HKRA6Q4cDgod3VG">
    <mxGraphModel dx="934" dy="607" grid="1" gridSize="10" guides="1" tooltips="1" connect="1" arrows="1" fold="1" page="1" pageScale="1" pageWidth="827" pageHeight="1169" math="0" shadow="0">
      <root>
        <mxCell id="0" />
        <mxCell id="1" parent="0" />
        <mxCell id="faz8wwudvPMrUq_amluH-2" style="edgeStyle=orthogonalEdgeStyle;rounded=0;orthogonalLoop=1;jettySize=auto;html=1;exitX=1;exitY=0.5;exitDx=0;exitDy=0;" parent="1" source="faz8wwudvPMrUq_amluH-1" target="faz8wwudvPMrUq_amluH-3" edge="1">
          <mxGeometry relative="1" as="geometry">
            <mxPoint x="360" y="280" as="targetPoint" />
          </mxGeometry>
        </mxCell>
        <mxCell id="faz8wwudvPMrUq_amluH-1" value="L2 Sequencer" style="rounded=1;whiteSpace=wrap;html=1;fillColor=#fff2cc;strokeColor=#d6b656;fontSize=22;" parent="1" vertex="1">
          <mxGeometry x="110" y="250" width="120" height="60" as="geometry" />
        </mxCell>
        <mxCell id="faz8wwudvPMrUq_amluH-12" style="edgeStyle=orthogonalEdgeStyle;rounded=0;orthogonalLoop=1;jettySize=auto;html=1;exitX=0.5;exitY=0;exitDx=0;exitDy=0;" parent="1" source="faz8wwudvPMrUq_amluH-3" edge="1">
          <mxGeometry relative="1" as="geometry">
            <mxPoint x="160" y="248" as="targetPoint" />
            <mxPoint x="410" y="235" as="sourcePoint" />
            <Array as="points">
              <mxPoint x="500" y="250" />
              <mxPoint x="500" y="211" />
              <mxPoint x="160" y="211" />
            </Array>
          </mxGeometry>
        </mxCell>
        <mxCell id="faz8wwudvPMrUq_amluH-3" value="L1&amp;nbsp;" style="rounded=1;whiteSpace=wrap;html=1;fillColor=#d5e8d4;strokeColor=#82b366;fontSize=22;" parent="1" vertex="1">
          <mxGeometry x="450" y="250" width="120" height="60" as="geometry" />
        </mxCell>
        <mxCell id="faz8wwudvPMrUq_amluH-5" style="edgeStyle=orthogonalEdgeStyle;rounded=0;orthogonalLoop=1;jettySize=auto;html=1;exitX=0.25;exitY=0;exitDx=0;exitDy=0;entryX=0.25;entryY=1;entryDx=0;entryDy=0;" parent="1" source="faz8wwudvPMrUq_amluH-4" target="faz8wwudvPMrUq_amluH-3" edge="1">
          <mxGeometry relative="1" as="geometry" />
        </mxCell>
        <mxCell id="faz8wwudvPMrUq_amluH-6" value="Get L2 Calldata" style="edgeLabel;html=1;align=center;verticalAlign=middle;resizable=0;points=[];fontSize=22;" parent="faz8wwudvPMrUq_amluH-5" vertex="1" connectable="0">
          <mxGeometry x="0.0286" y="-4" relative="1" as="geometry">
            <mxPoint x="-94" y="1" as="offset" />
          </mxGeometry>
        </mxCell>
        <mxCell id="faz8wwudvPMrUq_amluH-8" style="edgeStyle=orthogonalEdgeStyle;rounded=0;orthogonalLoop=1;jettySize=auto;html=1;exitX=0.75;exitY=0;exitDx=0;exitDy=0;entryX=0.75;entryY=1;entryDx=0;entryDy=0;strokeColor=#FF0000;dashed=1;dashPattern=1 2;strokeWidth=3;" parent="1" source="faz8wwudvPMrUq_amluH-4" target="faz8wwudvPMrUq_amluH-3" edge="1">
          <mxGeometry relative="1" as="geometry" />
        </mxCell>
        <mxCell id="faz8wwudvPMrUq_amluH-4" value="Verifier" style="rounded=1;whiteSpace=wrap;html=1;fillColor=#f8cecc;strokeColor=#b85450;fontSize=22;" parent="1" vertex="1">
          <mxGeometry x="450" y="415" width="120" height="60" as="geometry" />
        </mxCell>
        <mxCell id="faz8wwudvPMrUq_amluH-7" value="Sequence Batch" style="text;html=1;align=center;verticalAlign=middle;resizable=0;points=[];autosize=1;strokeColor=none;fillColor=none;fontSize=22;" parent="1" vertex="1">
          <mxGeometry x="250" y="240" width="180" height="40" as="geometry" />
        </mxCell>
        <mxCell id="faz8wwudvPMrUq_amluH-9" value="Submit Fraud Proof &lt;br&gt;and receive reward" style="text;html=1;align=center;verticalAlign=middle;resizable=0;points=[];autosize=1;strokeColor=none;fillColor=none;fontSize=22;" parent="1" vertex="1">
          <mxGeometry x="550" y="330" width="210" height="70" as="geometry" />
        </mxCell>
        <mxCell id="faz8wwudvPMrUq_amluH-13" value="1 Week Dispute Period&lt;br&gt;í ½í³…" style="text;html=1;strokeColor=none;fillColor=none;align=center;verticalAlign=middle;whiteSpace=wrap;rounded=0;fontSize=22;" parent="1" vertex="1">
          <mxGeometry x="580" y="440" width="150" height="30" as="geometry" />
        </mxCell>
      </root>
    </mxGraphModel>
  </diagram>
</mxfile>
